<?xml version="1.0" encoding="UTF-8" standalone="no"?>
<svg
   xmlns:dc="http://purl.org/dc/elements/1.1/"
   xmlns:cc="http://creativecommons.org/ns#"
   xmlns:rdf="http://www.w3.org/1999/02/22-rdf-syntax-ns#"
   xmlns:svg="http://www.w3.org/2000/svg"
   xmlns="http://www.w3.org/2000/svg"
   xmlns:sodipodi="http://sodipodi.sourceforge.net/DTD/sodipodi-0.dtd"
   xmlns:inkscape="http://www.inkscape.org/namespaces/inkscape"
   width="210mm"
   height="297mm"
   viewBox="0 0 210 297"
   version="1.1"
   id="svg32"
   inkscape:version="1.0.2 (e86c870879, 2021-01-15, custom)"
   sodipodi:docname="hackberry.svg">
  <defs
     id="defs26" />
  <sodipodi:namedview
     id="base"
     pagecolor="#ffffff"
     bordercolor="#666666"
     borderopacity="1.0"
     inkscape:pageopacity="0.0"
     inkscape:pageshadow="2"
     inkscape:zoom="0.35"
     inkscape:cx="400"
     inkscape:cy="560"
     inkscape:document-units="mm"
     inkscape:current-layer="layer1"
     inkscape:document-rotation="0"
     showgrid="false"
     inkscape:window-width="1624"
     inkscape:window-height="1020"
     inkscape:window-x="190"
     inkscape:window-y="0"
     inkscape:window-maximized="0" />
  <metadata
     id="metadata29">
    <rdf:RDF>
      <cc:Work
         rdf:about="">
        <dc:format>image/svg+xml</dc:format>
        <dc:type
           rdf:resource="http://purl.org/dc/dcmitype/StillImage" />
        <dc:title></dc:title>
      </cc:Work>
    </rdf:RDF>
  </metadata>
  <g
     inkscape:label="Layer 1"
     inkscape:groupmode="layer"
     id="layer1">
    <path
       style="fill:#000000;stroke-width:0.176389"
       d="m 60.646718,135.84588 c -3.3421,-1.0883 -5.47165,-4.55079 -4.85111,-7.88755 0.5708,-3.06935 2.76925,-5.31551 5.70951,-5.83342 l 1.03142,-0.18168 v -1.16735 -1.16736 l 1.14498,-1.15381 1.14497,-1.15382 -0.19368,-1.09957 c -0.64073,-3.63749 2.15911,-7.63672 5.67675,-8.10853 l 0.69365,-0.093 V 91.707037 75.414297 h 0.61644 0.61644 l 0.045,16.25854 0.045,16.258553 0.88195,0.19899 c 1.36961,0.30901 2.48452,0.9534 3.49932,2.02253 1.64267,1.73062 2.2515,3.69358 1.88274,6.0703 l -0.19181,1.23624 0.98237,0.99273 0.98237,0.99274 0.0385,1.22392 0.0385,1.22393 1.14653,0.139 c 3.20488,0.38856 5.65365,2.80931 6.18605,6.11527 0.46713,2.90056 -1.15112,5.94624 -3.87076,7.28511 -1.09005,0.53663 -1.27526,0.57138 -3.01713,0.56613 -2.34553,-0.007 -3.44609,-0.40109 -4.91253,-1.75875 -2.85626,-2.6444 -3.02774,-7.00709 -0.39307,-10.00024 0.68049,-0.77308 2.28088,-1.75167 3.22932,-1.97463 0.46612,-0.10958 0.48478,-0.15697 0.47783,-1.2131 -0.007,-1.01856 -0.0558,-1.15276 -0.67066,-1.83209 l -0.66342,-0.73301 -0.80412,0.9976 c -2.90659,3.60594 -8.45028,3.42076 -11.33588,-0.37867 l -0.50939,-0.67071 -0.77304,0.75867 c -0.7605,0.74638 -0.7722,0.77573 -0.72166,1.81 l 0.0514,1.05132 0.66218,0.13693 c 3.28733,0.67977 5.87928,4.62527 5.26082,8.0081 -0.428,2.34103 -1.88192,4.25491 -4.03114,5.30642 -0.8437,0.41279 -1.25838,0.49559 -2.67973,0.5351 -1.06926,0.0297 -1.95224,-0.0414 -2.42487,-0.1953 z m -8.25254,-13.93305 c -2.042457,-0.49669 -3.819646,-1.96142 -4.79861,-3.95495 -0.449084,-0.9145 -0.493057,-1.17709 -0.493057,-2.94432 0,-1.85238 0.02701,-1.99409 0.59612,-3.12815 1.186548,-2.36439 3.183002,-3.65581 5.873669,-3.79945 3.173768,-0.16942 5.227408,0.99293 6.943288,3.92987 0.16492,0.28228 0.26965,0.22657 1.01423,-0.5395 l 0.83033,-0.85429 v -1.26241 -1.26242 l -1.17319,-0.10955 c -5.79747,-0.54138 -8.395338,-7.85223 -4.25979,-11.987783 2.3846,-2.3846 6.30685,-2.73592 9.0547,-0.81105 0.53903,0.3776 1.04769,0.68654 1.13034,0.68654 0.0827,0 0.39663,-0.28058 0.69773,-0.6235 l 0.54743,-0.6235 v -9.60706 -9.60705 h 0.52917 0.52917 v 9.91581 9.91582 l -0.80158,0.81382 -0.80159,0.81382 0.44514,0.88624 c 1.92964,3.841843 -0.001,8.630213 -4.00135,9.923543 l -0.66146,0.21386 v 1.62265 1.62265 l -1.21848,1.20915 -1.21849,1.20915 -0.0604,1.60834 c -0.051,1.358 -0.14561,1.78821 -0.60794,2.76394 -1.46245,3.08645 -4.87341,4.76331 -8.0954,3.97978 z m 35.05741,-0.0281 c -2.03736,-0.54861 -3.59857,-1.81262 -4.48963,-3.63496 -0.4822,-0.98615 -0.84248,-2.6613 -0.84492,-3.92844 -10e-4,-0.61741 -0.13474,-0.82979 -1.23605,-1.96558 l -1.23473,-1.27337 v -1.61184 c 0,-1.38284 -0.0438,-1.62475 -0.30868,-1.70278 -1.78751,-0.52668 -3.52548,-2.03573 -4.35119,-3.77803 -0.49986,-1.05475 -0.5436,-1.29604 -0.5436,-2.99912 0,-1.651823 0.0524,-1.964053 0.48507,-2.887633 0.26679,-0.56956 0.48507,-1.08688 0.48507,-1.14961 0,-0.0627 -0.35719,-0.48682 -0.79375,-0.94241 l -0.79375,-0.82835 v -9.88419 -9.88419 h 0.61736 0.61736 v 9.66678 9.66679 l 0.6016,0.58309 0.60159,0.58309 0.8154,-0.56101 c 1.62138,-1.11554 2.30297,-1.32419 4.33512,-1.32708 1.74198,-0.002 1.9276,0.0327 3.0266,0.57375 1.49095,0.73399 2.95231,2.26872 3.51832,3.69494 0.57398,1.44631 0.57514,3.943003 0.002,5.385373 -0.46845,1.17996 -1.80409,2.7239 -2.92433,3.38041 -0.89611,0.52516 -2.52575,0.98581 -3.48747,0.98581 h -0.66849 v 1.28545 1.28545 l 0.85197,0.83916 0.85197,0.83916 0.65058,-1.05403 c 0.74907,-1.21359 1.59641,-1.94176 3.05428,-2.62475 0.92633,-0.43396 1.22402,-0.48225 2.97338,-0.48225 1.83568,0 2.00868,0.0318 3.10532,0.57173 1.39865,0.68855 2.63729,1.95016 3.2974,3.35856 0.42294,0.90236 0.47274,1.21297 0.47274,2.94888 0,1.80273 -0.0386,2.02156 -0.54444,3.0868 -1.4498,3.05315 -4.9012,4.65724 -8.1426,3.7844 z"
       id="path48" />
  </g>
</svg>
