<svg xmlns="http://www.w3.org/2000/svg" xmlns:xlink="http://www.w3.org/1999/xlink" version="1.1" x="0px" y="0px" viewBox="0 0 10 12.5" enable-background="new 0 0 10 10" xml:space="preserve"><path d="M9.163,3.741L7.541,1.819c-0.03-0.036-0.074-0.056-0.12-0.056H5.982c-0.087,0-0.157,0.07-0.157,0.157  c0,0.453-0.369,0.824-0.824,0.824S4.176,2.374,4.176,1.921c0-0.087-0.069-0.157-0.155-0.157H2.58c-0.046,0-0.089,0.02-0.12,0.056  L0.837,3.741C0.812,3.773,0.8,3.815,0.802,3.856c0.004,0.042,0.023,0.079,0.056,0.107l1.151,0.967  c0.064,0.056,0.162,0.048,0.219-0.018L2.54,4.554L2.423,8.075c0,0.043,0.016,0.085,0.045,0.115C2.497,8.22,2.538,8.236,2.58,8.236  h4.841c0.043,0,0.083-0.017,0.111-0.046c0.029-0.03,0.047-0.072,0.045-0.115L7.461,4.554l0.312,0.359  c0.057,0.065,0.156,0.073,0.221,0.018l1.15-0.967c0.031-0.028,0.053-0.065,0.055-0.107C9.202,3.815,9.189,3.773,9.163,3.741z"/><text x="0" y="25" fill="#000000" font-size="5px" font-weight="bold" font-family="'Helvetica Neue', Helvetica, Arial-Unicode, Arial, Sans-serif">Created by verry obito</text><text x="0" y="30" fill="#000000" font-size="5px" font-weight="bold" font-family="'Helvetica Neue', Helvetica, Arial-Unicode, Arial, Sans-serif">from the Noun Project</text></svg>