<svg xmlns="http://www.w3.org/2000/svg" xmlns:xlink="http://www.w3.org/1999/xlink" version="1.1" x="0px" y="0px" viewBox="0 0 512 640" enable-background="new 0 0 512 512" xml:space="preserve"><path d="M369.496,261.312c-8.874-10.249-19.874-19.374-33.653-27.811c-13.063-8.031-28.375-15.343-46.748-22.312  c-27.653-10.75-44.623-19.156-54.998-27.28c-9.529-7.438-13.593-14.563-13.593-23.875c0-6.031,1.656-14.688,9.499-21.688  c8.156-7.281,21.438-11.156,38.373-11.156c34.875,0,58.593,10.437,73.778,18l40.404-69.998l0.154-0.594l-8.188-4.156  c-16.155-8.156-41.248-18.874-78.402-21.843V0.009h-78.496v54.186c-26.968,7.063-49.685,20.093-66.247,38.093  c-19.218,20.905-29.374,47.592-29.374,77.153c0,15.562,2.906,30.03,8.625,43.03c5.469,12.281,13.625,23.688,24.28,33.842  c18.312,17.437,44.248,31.999,81.652,45.812l0,0l0.03,0.03c50.624,18.437,60.967,34.498,60.967,52.937  c0,10.905-4.625,19.843-13.78,26.562c-9.875,7.25-24.593,11.25-41.498,11.25c-37.655,0-68.122-13.125-85.527-22.813l-40.873,70.778  l6.843,4.438c22.719,14.721,58.997,25.344,94.902,28.155v48.529h78.497v-54.592c28.779-7.125,52.936-20.97,70.371-40.5  c9.655-10.779,17.093-23.062,22.123-36.528c4.969-13.313,7.5-27.468,7.5-42.154C396.12,307.153,387.401,281.968,369.496,261.312z"/><text x="0" y="527" fill="#000000" font-size="5px" font-weight="bold" font-family="'Helvetica Neue', Helvetica, Arial-Unicode, Arial, Sans-serif">Created by Hassan ali</text><text x="0" y="532" fill="#000000" font-size="5px" font-weight="bold" font-family="'Helvetica Neue', Helvetica, Arial-Unicode, Arial, Sans-serif">from the Noun Project</text></svg>