<svg xmlns="http://www.w3.org/2000/svg" xmlns:xlink="http://www.w3.org/1999/xlink" viewBox="0 0 100 125" version="1.1" xml:space="preserve" style="" x="0px" y="0px" fill-rule="evenodd" clip-rule="evenodd" stroke-linejoin="round" stroke-miterlimit="1.41421"><g transform="matrix(0.505948,0,0,0.505948,4.39453,5.17012)"><path d="M55.023,6.489C51.545,6.077 48.031,6.077 44.553,6.489C44,9.668 43.445,12.846 42.886,16.024C40.158,16.567 37.503,17.429 34.977,18.594C32.657,16.352 30.34,14.107 28.024,11.859C24.969,13.571 22.125,15.636 19.553,18.014C20.975,20.91 22.394,23.808 23.81,26.707C21.922,28.75 20.281,31.008 18.922,33.435C15.727,32.985 12.532,32.531 9.338,32.074C7.872,35.254 6.786,38.597 6.103,42.032C8.956,43.539 11.807,45.05 14.656,46.563C14.329,49.325 14.329,52.117 14.656,54.879C11.807,56.393 8.956,57.903 6.103,59.411C6.786,62.846 7.872,66.188 9.338,69.369C12.532,68.911 15.727,68.458 18.922,68.007C20.281,70.434 21.922,72.692 23.81,74.735C22.394,77.634 20.975,80.532 19.553,83.428C22.125,85.806 24.969,87.872 28.024,89.583C30.34,87.336 32.657,85.091 34.977,82.848C37.503,84.013 40.158,84.875 42.886,85.418C43.445,88.596 44,91.774 44.553,94.953C48.031,95.365 51.545,95.365 55.023,94.953C55.575,91.774 56.131,88.596 56.689,85.418C59.418,84.875 62.072,84.013 64.599,82.848C66.919,85.091 69.236,87.336 71.551,89.583C74.607,87.872 77.45,85.806 80.022,83.428C78.6,80.532 77.182,77.634 75.766,74.735C77.654,72.692 79.295,70.434 80.654,68.007C83.849,68.458 87.043,68.911 90.237,69.369C91.704,66.188 92.79,62.846 93.473,59.411C90.62,57.903 87.769,56.393 84.919,54.879C85.246,52.117 85.246,49.325 84.919,46.563C87.769,45.05 90.62,43.539 93.473,42.032C92.79,38.597 91.704,35.254 90.237,32.074C87.043,32.531 83.849,32.985 80.654,33.435C79.295,31.008 77.654,28.75 75.766,26.707C77.182,23.808 78.6,20.91 80.022,18.014C77.45,15.636 74.607,13.571 71.551,11.859C69.236,14.107 66.919,16.352 64.599,18.594C62.072,17.429 59.418,16.567 56.689,16.024C56.131,12.846 55.575,9.668 55.023,6.489ZM49.788,32.61C59.784,32.61 67.899,40.725 67.899,50.721C67.899,60.717 59.784,68.832 49.788,68.832C39.792,68.832 31.677,60.717 31.677,50.721C31.677,40.725 39.792,32.61 49.788,32.61Z" style="" fill="black"/></g><g transform="matrix(0.505948,0,0,0.505948,4.39453,5.17012)"><path d="M50.138,3.162C51.774,3.18 53.403,3.276 55.03,3.45L57.61,3.746L58.828,10.737L59.317,13.526C59.647,13.611 59.974,13.7 60.302,13.792C60.664,13.897 61.024,14.005 61.384,14.118C62.102,14.348 62.813,14.596 63.518,14.863L63.781,14.965L63.941,15.029L65.976,13.06L71.07,8.12C71.926,8.603 72.784,9.082 73.636,9.572C75.047,10.397 76.42,11.283 77.743,12.244C79.161,13.274 80.514,14.385 81.814,15.559L83.727,17.316L80.604,23.687L79.36,26.231C79.576,26.493 79.789,26.758 80,27.025C80.231,27.322 80.459,27.622 80.684,27.924C81.13,28.533 81.559,29.151 81.972,29.782L82.125,30.019L82.217,30.164L85.021,29.767L92.046,28.766C92.454,29.659 92.867,30.551 93.268,31.448C93.925,32.945 94.515,34.469 95.021,36.024C95.562,37.69 96.004,39.385 96.365,41.099L96.881,43.645L90.609,46.963L88.107,48.29C88.128,48.63 88.144,48.969 88.158,49.309C88.171,49.685 88.179,50.062 88.183,50.439C88.186,51.193 88.169,51.945 88.133,52.698L88.118,52.981L88.107,53.152L90.609,54.479L96.881,57.798C96.686,58.761 96.495,59.725 96.293,60.686C95.944,62.283 95.526,63.863 95.021,65.418C94.479,67.084 93.841,68.715 93.125,70.314L92.046,72.677L85.021,71.675L82.217,71.278C82.035,71.565 81.849,71.849 81.66,72.132C81.449,72.444 81.235,72.753 81.016,73.061C80.575,73.672 80.12,74.272 79.648,74.86L79.469,75.079L79.36,75.211L80.604,77.755L83.727,84.127C83.003,84.791 82.283,85.459 81.554,86.118C80.246,87.283 78.884,88.384 77.459,89.403C76.129,90.354 74.75,91.23 73.332,92.045L71.07,93.323L65.976,88.383L63.941,86.414C63.625,86.539 63.307,86.659 62.988,86.777C62.634,86.905 62.278,87.03 61.921,87.15C61.205,87.386 60.484,87.602 59.757,87.801L59.484,87.873L59.317,87.916L58.828,90.705L57.61,97.696C56.634,97.808 55.658,97.924 54.681,98.029C52.938,98.203 51.19,98.293 49.438,98.28C47.803,98.268 46.172,98.166 44.546,97.992L41.965,97.696L40.747,90.705L40.258,87.916C39.929,87.831 39.601,87.742 39.274,87.65C38.912,87.546 38.551,87.437 38.192,87.325C37.474,87.094 36.763,86.846 36.058,86.579L35.794,86.477L35.635,86.414L33.6,88.383L28.505,93.323C27.65,92.839 26.792,92.36 25.94,91.87C24.427,90.987 22.96,90.032 21.55,88.992C20.234,88.021 18.975,86.979 17.762,85.883L15.848,84.127L18.972,77.755L20.216,75.211C19.999,74.949 19.787,74.684 19.576,74.417C19.344,74.12 19.116,73.82 18.891,73.518C18.446,72.91 18.017,72.291 17.604,71.66L17.45,71.423L17.358,71.278L14.554,71.675L7.529,72.677C7.121,71.783 6.709,70.891 6.307,69.994C5.603,68.39 4.977,66.755 4.448,65.085C3.954,63.526 3.548,61.943 3.211,60.343L2.695,57.798L8.967,54.479L11.469,53.152C11.447,52.813 11.431,52.473 11.417,52.134C11.405,51.757 11.397,51.381 11.392,51.004C11.39,50.25 11.406,49.497 11.442,48.744L11.458,48.462L11.469,48.29L8.967,46.963L2.695,43.645C2.89,42.682 3.081,41.718 3.283,40.756C3.656,39.045 4.111,37.354 4.665,35.692C5.181,34.14 5.782,32.621 6.451,31.128L7.529,28.766L14.554,29.767L17.358,30.164C17.54,29.877 17.727,29.593 17.915,29.31C18.127,28.998 18.341,28.689 18.559,28.381C19,27.77 19.456,27.171 19.928,26.583L20.106,26.363L20.216,26.231L18.972,23.687L15.848,17.316C16.572,16.651 17.293,15.983 18.022,15.324C19.33,14.159 20.692,13.058 22.116,12.039C23.446,11.088 24.826,10.212 26.244,9.397L28.505,8.12L33.6,13.06L35.635,15.029C35.951,14.904 36.269,14.783 36.587,14.665C36.942,14.537 37.297,14.413 37.654,14.292C38.37,14.057 39.091,13.84 39.819,13.641L40.092,13.569L40.258,13.526L40.747,10.737L41.965,3.746C42.942,3.634 43.917,3.518 44.894,3.413C46.289,3.274 47.686,3.192 49.088,3.166C49.438,3.162 49.788,3.161 50.138,3.162ZM21.792,66.946C22.354,67.906 22.957,68.84 23.61,69.74C24.264,70.64 24.966,71.502 25.706,72.333L25.866,72.509L27.427,74.211L24.396,80.411L23.283,82.681C23.573,82.922 23.867,83.158 24.163,83.392C25.128,84.143 26.121,84.854 27.144,85.525L27.401,85.69L27.582,85.805L29.398,84.045L34.357,79.246C35.203,79.632 36.044,80.025 36.894,80.398C37.916,80.838 38.955,81.231 40.016,81.567C41.076,81.903 42.153,82.18 43.242,82.409L45.505,82.868C46.048,85.964 46.591,89.06 47.131,92.157C47.507,92.181 47.883,92.199 48.26,92.214C49.483,92.255 50.704,92.246 51.926,92.187L52.231,92.17L52.445,92.157L52.879,89.665L54.071,82.868C54.981,82.683 55.893,82.507 56.8,82.309C57.885,82.064 58.958,81.772 60.013,81.42C61.068,81.069 62.102,80.66 63.117,80.205L65.218,79.246C67.477,81.432 69.737,83.617 71.993,85.805C72.312,85.603 72.627,85.397 72.941,85.188C73.954,84.502 74.937,83.777 75.891,83.011L76.128,82.818L76.293,82.681L75.18,80.411L72.148,74.211C72.776,73.526 73.41,72.848 74.028,72.155C74.762,71.319 75.457,70.452 76.105,69.547C76.752,68.642 77.348,67.704 77.902,66.739L79.038,64.728C82.15,65.169 85.263,65.609 88.374,66.053C88.513,65.702 88.647,65.35 88.778,64.996C89.194,63.846 89.563,62.682 89.885,61.501L89.963,61.206L90.017,60.998L87.781,59.815L81.685,56.582C81.791,55.659 81.905,54.737 81.997,53.813C82.099,52.706 82.152,51.595 82.144,50.483C82.136,49.371 82.066,48.261 81.948,47.155L81.685,44.861C84.462,43.388 87.238,41.914 90.017,40.444C89.923,40.079 89.824,39.715 89.722,39.352C89.383,38.176 88.997,37.018 88.564,35.874L88.453,35.589L88.374,35.39L85.871,35.747L79.038,36.714C78.581,35.905 78.132,35.092 77.663,34.291C77.095,33.335 76.485,32.405 75.825,31.51C75.164,30.615 74.456,29.758 73.71,28.933L72.148,27.231C73.529,24.407 74.909,21.583 76.293,18.761C76.002,18.52 75.708,18.284 75.413,18.05C74.447,17.299 73.454,16.589 72.431,15.918L72.174,15.752L71.993,15.637L70.178,17.397L65.218,22.196C64.373,21.81 63.532,21.417 62.682,21.044C61.66,20.605 60.62,20.211 59.56,19.875C58.499,19.539 57.423,19.262 56.334,19.033L54.071,18.574C53.528,15.478 52.985,12.382 52.445,9.285C52.069,9.262 51.692,9.243 51.315,9.228C50.093,9.188 48.872,9.197 47.65,9.255L47.344,9.272L47.131,9.285L46.696,11.777L45.505,18.574C44.594,18.759 43.683,18.935 42.775,19.133C41.69,19.378 40.618,19.671 39.563,20.022C38.507,20.374 37.473,20.783 36.458,21.237L34.357,22.196C32.098,20.01 29.839,17.825 27.582,15.637C27.264,15.839 26.948,16.046 26.635,16.255C25.622,16.941 24.639,17.666 23.685,18.431L23.448,18.624L23.283,18.761L24.396,21.032L27.427,27.231C26.799,27.916 26.165,28.594 25.548,29.288C24.814,30.124 24.118,30.991 23.471,31.895C22.824,32.8 22.228,33.739 21.674,34.703L20.538,36.714C17.426,36.273 14.313,35.833 11.201,35.39C11.062,35.74 10.929,36.093 10.798,36.446C10.381,37.597 10.013,38.761 9.691,39.941L9.612,40.236L9.559,40.444L11.794,41.627L17.891,44.861C17.785,45.784 17.671,46.705 17.579,47.629C17.477,48.737 17.423,49.847 17.432,50.959C17.44,52.072 17.509,53.181 17.628,54.287L17.891,56.582C15.114,58.055 12.337,59.528 9.559,60.998C9.653,61.364 9.752,61.727 9.854,62.09C10.193,63.266 10.579,64.424 11.012,65.568L11.122,65.853L11.201,66.053L13.705,65.696L20.538,64.728C20.956,65.468 21.369,66.21 21.792,66.946ZM50.06,29.592C51.045,29.611 52.027,29.685 53.001,29.834C54.976,30.136 56.906,30.721 58.716,31.567C60.869,32.573 62.847,33.944 64.547,35.604C66.245,37.262 67.662,39.205 68.719,41.33C69.606,43.114 70.238,45.024 70.588,46.985C70.982,49.189 71.024,51.455 70.714,53.672C70.412,55.823 69.775,57.925 68.832,59.882C67.727,62.173 66.206,64.259 64.365,66.014C62.458,67.832 60.213,69.291 57.774,70.288C55.245,71.322 52.52,71.852 49.788,71.852C47.056,71.852 44.331,71.322 41.802,70.288C39.363,69.291 37.118,67.832 35.211,66.014C33.37,64.259 31.848,62.173 30.744,59.882C29.8,57.925 29.163,55.823 28.862,53.672C28.551,51.455 28.593,49.189 28.987,46.985C29.338,45.024 29.969,43.114 30.856,41.33C31.913,39.205 33.331,37.262 35.029,35.604C36.728,33.944 38.707,32.573 40.859,31.567C42.669,30.721 44.599,30.136 46.575,29.834C47.549,29.685 48.53,29.611 49.516,29.592C49.788,29.59 49.787,29.59 50.06,29.592ZM49.592,35.631C48.887,35.644 48.185,35.697 47.488,35.804C46.081,36.019 44.705,36.436 43.416,37.039C40.443,38.427 37.962,40.793 36.431,43.694C35.77,44.946 35.287,46.292 35.003,47.679C34.657,49.371 34.603,51.123 34.843,52.834C35.058,54.367 35.511,55.864 36.184,57.259C36.974,58.897 38.062,60.388 39.379,61.643C40.741,62.942 42.345,63.985 44.088,64.698C45.893,65.436 47.838,65.813 49.788,65.813C51.738,65.813 53.683,65.436 55.488,64.698C57.231,63.985 58.835,62.942 60.197,61.643C61.513,60.388 62.602,58.897 63.392,57.259C64.064,55.864 64.518,54.367 64.733,52.834C64.972,51.123 64.919,49.371 64.573,47.679C64.276,46.232 63.764,44.831 63.059,43.533C61.521,40.705 59.077,38.401 56.16,37.039C54.87,36.436 53.495,36.019 52.088,35.804C51.391,35.697 50.688,35.644 49.983,35.631C49.788,35.63 49.789,35.63 49.592,35.631Z" style="" fill="black" fill-rule="nonzero"/></g><g transform="matrix(0.566442,0,0,0.566442,39.5708,37.7426)"><path d="M55.023,6.489C51.545,6.077 48.031,6.077 44.553,6.489C44,9.668 43.445,12.846 42.886,16.024C40.158,16.567 37.503,17.429 34.977,18.594C32.657,16.352 30.34,14.107 28.024,11.859C24.969,13.571 22.125,15.636 19.553,18.014C20.975,20.91 22.394,23.808 23.81,26.707C21.922,28.75 20.281,31.008 18.922,33.435C15.727,32.985 12.532,32.531 9.338,32.074C7.872,35.254 6.786,38.597 6.103,42.032C8.956,43.539 11.807,45.05 14.656,46.563C14.329,49.325 14.329,52.117 14.656,54.879C11.807,56.393 8.956,57.903 6.103,59.411C6.786,62.846 7.872,66.188 9.338,69.369C12.532,68.911 15.727,68.458 18.922,68.007C20.281,70.434 21.922,72.692 23.81,74.735C22.394,77.634 20.975,80.532 19.553,83.428C22.125,85.806 24.969,87.872 28.024,89.583C30.34,87.336 32.657,85.091 34.977,82.848C37.503,84.013 40.158,84.875 42.886,85.418C43.445,88.596 44,91.774 44.553,94.953C48.031,95.365 51.545,95.365 55.023,94.953C55.575,91.774 56.131,88.596 56.689,85.418C59.418,84.875 62.072,84.013 64.599,82.848C66.919,85.091 69.236,87.336 71.551,89.583C74.607,87.872 77.45,85.806 80.022,83.428C78.6,80.532 77.182,77.634 75.766,74.735C77.654,72.692 79.295,70.434 80.654,68.007C83.849,68.458 87.043,68.911 90.237,69.369C91.704,66.188 92.79,62.846 93.473,59.411C90.62,57.903 87.769,56.393 84.919,54.879C85.246,52.117 85.246,49.325 84.919,46.563C87.769,45.05 90.62,43.539 93.473,42.032C92.79,38.597 91.704,35.254 90.237,32.074C87.043,32.531 83.849,32.985 80.654,33.435C79.295,31.008 77.654,28.75 75.766,26.707C77.182,23.808 78.6,20.91 80.022,18.014C77.45,15.636 74.607,13.571 71.551,11.859C69.236,14.107 66.919,16.352 64.599,18.594C62.072,17.429 59.418,16.567 56.689,16.024C56.131,12.846 55.575,9.668 55.023,6.489ZM49.788,30.631C60.876,30.631 69.878,39.633 69.878,50.721C69.878,61.809 60.876,70.811 49.788,70.811C38.7,70.811 29.698,61.809 29.698,50.721C29.698,39.633 38.7,30.631 49.788,30.631Z" style="" fill="black"/></g><g transform="matrix(0.566442,0,0,0.566442,39.5708,37.7426)"><path d="M35.561,15.406C35.851,15.288 36.143,15.176 36.435,15.065C36.698,14.968 36.962,14.873 37.226,14.779C38.286,14.413 39.358,14.091 40.445,13.811L40.54,13.788C41.11,10.539 41.675,7.289 42.242,4.039C43.137,3.937 44.032,3.83 44.928,3.734C46.543,3.573 48.164,3.483 49.788,3.483C51.528,3.483 53.264,3.586 54.994,3.771L57.334,4.039L58.511,10.793L59.036,13.788C59.339,13.863 59.642,13.944 59.943,14.027C60.213,14.102 60.482,14.18 60.751,14.26C61.824,14.587 62.881,14.956 63.924,15.369L64.015,15.406C66.386,13.112 68.754,10.815 71.122,8.519C71.906,8.962 72.693,9.402 73.474,9.851C74.976,10.729 76.434,11.677 77.834,12.71C79.141,13.674 80.392,14.709 81.596,15.798L83.332,17.39L80.314,23.545L78.978,26.277C79.18,26.517 79.377,26.76 79.572,27.004C79.746,27.224 79.918,27.445 80.089,27.667C80.765,28.563 81.403,29.483 82.004,30.43L82.056,30.513C85.322,30.05 88.588,29.585 91.853,29.119C92.227,29.939 92.605,30.757 92.973,31.579C93.673,33.172 94.295,34.796 94.82,36.455C95.311,38.003 95.715,39.575 96.049,41.164L96.517,43.472L90.458,46.678L87.771,48.103C87.793,48.415 87.81,48.728 87.825,49.04C87.836,49.32 87.845,49.6 87.852,49.881C87.873,51.002 87.848,52.122 87.778,53.241L87.771,53.339C90.685,54.885 93.601,56.427 96.517,57.97C96.338,58.853 96.163,59.737 95.977,60.619C95.607,62.318 95.155,63.998 94.605,65.649C94.092,67.19 93.495,68.699 92.831,70.181L91.853,72.323L85.067,71.356L82.056,70.929C81.89,71.195 81.72,71.457 81.548,71.719C81.393,71.952 81.236,72.184 81.077,72.415C80.434,73.335 79.756,74.226 79.041,75.09L78.978,75.165C80.427,78.129 81.88,81.09 83.332,84.052C82.668,84.661 82.007,85.274 81.338,85.878C80.039,87.035 78.687,88.128 77.272,89.141C75.951,90.086 74.58,90.956 73.172,91.765L71.122,92.923L66.2,88.151L64.015,86.037C63.725,86.154 63.433,86.266 63.14,86.377C62.877,86.474 62.614,86.57 62.35,86.663C61.289,87.029 60.217,87.352 59.131,87.631L59.036,87.655C58.466,90.904 57.9,94.154 57.334,97.403C56.439,97.506 55.544,97.612 54.648,97.708C52.917,97.881 51.18,97.971 49.44,97.958C47.816,97.946 46.196,97.844 44.582,97.671L42.242,97.403L41.065,90.65L40.54,87.655C40.236,87.579 39.934,87.498 39.632,87.416C39.362,87.34 39.093,87.262 38.825,87.182C37.751,86.855 36.694,86.486 35.651,86.073L35.561,86.037C33.19,88.33 30.822,90.627 28.454,92.923C27.669,92.48 26.883,92.04 26.101,91.591C24.599,90.713 23.142,89.765 21.742,88.732C20.435,87.768 19.184,86.733 17.979,85.644L16.244,84.052L19.262,77.897L20.597,75.165C20.396,74.925 20.199,74.682 20.003,74.438C19.829,74.218 19.657,73.997 19.487,73.775C18.811,72.88 18.173,71.959 17.572,71.012L17.52,70.929C14.254,71.392 10.988,71.858 7.722,72.323C7.348,71.504 6.97,70.686 6.602,69.863C5.95,68.376 5.364,66.863 4.862,65.318C4.324,63.664 3.885,61.981 3.527,60.278L3.059,57.97L9.118,54.764L11.804,53.339C11.782,53.027 11.766,52.714 11.751,52.402C11.74,52.122 11.73,51.842 11.723,51.562C11.703,50.44 11.727,49.321 11.797,48.201L11.804,48.103C8.89,46.558 5.974,45.015 3.059,43.472C3.238,42.589 3.413,41.705 3.598,40.824C3.944,39.237 4.36,37.668 4.862,36.124C5.4,34.469 6.033,32.849 6.744,31.261L7.722,29.119L14.509,30.087L17.52,30.513C17.686,30.247 17.856,29.985 18.028,29.723C18.183,29.49 18.34,29.258 18.499,29.027C19.141,28.108 19.819,27.217 20.534,26.352L20.597,26.277C19.148,23.314 17.696,20.352 16.244,17.39C16.908,16.781 17.569,16.169 18.237,15.564C19.45,14.484 20.708,13.459 22.022,12.505C23.43,11.482 24.895,10.544 26.403,9.677L28.454,8.519C30.822,10.815 33.19,13.112 35.561,15.406ZM36.545,80.597C37.574,81.049 38.621,81.454 39.689,81.801C40.758,82.148 41.843,82.436 42.941,82.675L43.176,82.725L45.225,83.14L46.379,89.721L46.856,92.462C47.218,92.487 47.579,92.507 47.941,92.524C49.481,92.586 51.019,92.569 52.558,92.473L52.719,92.462L53.197,89.721L54.351,83.14C55.112,82.986 55.875,82.835 56.635,82.675C56.949,82.607 57.261,82.535 57.573,82.46C58.507,82.227 59.432,81.96 60.343,81.649C61.254,81.338 62.149,80.984 63.03,80.597L63.25,80.499L65.152,79.631L69.953,84.276L71.951,86.213C72.258,86.021 72.562,85.825 72.865,85.626C74.147,84.771 75.382,83.853 76.57,82.871L76.694,82.767L75.469,80.269L72.535,74.267C73.06,73.694 73.588,73.124 74.11,72.548C74.323,72.308 74.534,72.066 74.742,71.822C75.361,71.085 75.952,70.326 76.506,69.539C77.06,68.751 77.576,67.939 78.062,67.108L78.182,66.899L79.21,65.079L85.825,66.015L88.58,66.408C88.715,66.072 88.846,65.734 88.974,65.396C89.509,63.95 89.968,62.482 90.352,60.989L90.391,60.832L87.932,59.53L82.03,56.4C82.119,55.628 82.211,54.856 82.294,54.083C82.326,53.764 82.354,53.444 82.379,53.124C82.446,52.164 82.478,51.203 82.464,50.24C82.45,49.277 82.389,48.317 82.294,47.359L82.268,47.119L82.03,45.042L87.932,41.912L90.391,40.611C90.304,40.259 90.211,39.909 90.115,39.56C89.699,38.076 89.207,36.618 88.64,35.185L88.58,35.035L85.825,35.427L79.21,36.364C78.828,35.687 78.449,35.008 78.062,34.335C77.9,34.057 77.735,33.782 77.567,33.509C77.057,32.693 76.518,31.896 75.941,31.125C75.363,30.355 74.75,29.613 74.11,28.894L73.948,28.716L72.535,27.175L75.469,21.173L76.694,18.675C76.417,18.443 76.136,18.214 75.853,17.988C74.644,17.032 73.39,16.141 72.088,15.315L71.951,15.229L69.953,17.166L65.152,21.812C64.445,21.489 63.74,21.162 63.03,20.845C62.737,20.716 62.441,20.59 62.145,20.468C61.252,20.107 60.348,19.78 59.428,19.496C58.508,19.212 57.576,18.972 56.635,18.767L56.399,18.717L54.351,18.302L53.197,11.721L52.719,8.981C52.358,8.955 51.997,8.936 51.635,8.918C50.095,8.856 48.557,8.873 47.018,8.969L46.856,8.981L46.379,11.721L45.225,18.302C44.464,18.456 43.701,18.607 42.941,18.767C42.627,18.835 42.314,18.907 42.002,18.983C41.068,19.215 40.144,19.482 39.233,19.793C38.322,20.104 37.427,20.458 36.545,20.845L36.325,20.943L34.424,21.812L29.622,17.166L27.625,15.229C27.318,15.421 27.014,15.618 26.711,15.816C25.428,16.671 24.194,17.589 23.006,18.571L22.882,18.675L24.106,21.173L27.041,27.175C26.516,27.748 25.987,28.318 25.466,28.894C25.253,29.134 25.042,29.376 24.834,29.62C24.215,30.358 23.624,31.117 23.07,31.904C22.515,32.691 21.999,33.503 21.513,34.335L21.393,34.543L20.365,36.364L13.75,35.427L10.996,35.035C10.86,35.37 10.73,35.708 10.602,36.047C10.066,37.492 9.607,38.96 9.224,40.453L9.184,40.611L11.643,41.912L17.545,45.042C17.457,45.814 17.364,46.586 17.282,47.359C17.25,47.678 17.221,47.998 17.197,48.318C17.129,49.278 17.098,50.24 17.112,51.202C17.126,52.165 17.186,53.125 17.282,54.083L17.307,54.323L17.545,56.4L11.643,59.53L9.184,60.832C9.272,61.183 9.365,61.533 9.46,61.882C9.877,63.366 10.368,64.824 10.935,66.257L10.996,66.408L13.75,66.015L20.365,65.079C20.747,65.755 21.126,66.434 21.513,67.108C21.675,67.385 21.84,67.66 22.008,67.933C22.518,68.75 23.058,69.546 23.635,70.317C24.212,71.087 24.826,71.829 25.466,72.548L25.628,72.727L27.041,74.267L24.106,80.269L22.882,82.767C23.159,83 23.44,83.228 23.722,83.455C24.932,84.411 26.186,85.301 27.487,86.127L27.625,86.213L29.622,84.276L34.424,79.631C35.131,79.953 35.836,80.28 36.545,80.597ZM50.082,27.935C51.144,27.956 52.202,28.036 53.254,28.196C55.383,28.522 57.464,29.153 59.416,30.065C61.737,31.15 63.871,32.629 65.704,34.419C67.535,36.207 69.064,38.302 70.204,40.595C71.16,42.518 71.841,44.577 72.219,46.692C72.644,49.068 72.689,51.513 72.354,53.903C72.029,56.223 71.343,58.489 70.325,60.599C69.134,63.071 67.493,65.32 65.507,67.213C63.451,69.174 61.03,70.747 58.4,71.822C55.672,72.937 52.734,73.509 49.788,73.509C46.842,73.509 43.903,72.937 41.176,71.822C38.546,70.747 36.125,69.174 34.068,67.213C32.083,65.32 30.442,63.07 29.25,60.599C28.233,58.489 27.546,56.223 27.221,53.903C26.887,51.513 26.932,49.068 27.356,46.692C27.735,44.577 28.415,42.518 29.372,40.595C30.512,38.302 32.04,36.207 33.872,34.419C35.705,32.629 37.838,31.15 40.16,30.065C42.111,29.153 44.193,28.522 46.322,28.196C47.373,28.036 48.431,27.956 49.494,27.935C49.788,27.934 49.788,27.934 50.082,27.935ZM49.563,33.329C48.75,33.345 47.941,33.406 47.138,33.529C45.515,33.777 43.93,34.258 42.443,34.952C38.953,36.583 36.054,39.381 34.297,42.808C33.552,44.263 33.014,45.823 32.706,47.428C32.345,49.312 32.298,51.256 32.564,53.155C32.811,54.922 33.334,56.649 34.109,58.256C35.02,60.144 36.274,61.863 37.791,63.309C39.361,64.806 41.209,66.008 43.218,66.829C45.299,67.68 47.54,68.114 49.788,68.114C52.035,68.114 54.277,67.68 56.358,66.829C58.366,66.008 60.215,64.806 61.785,63.309C63.302,61.863 64.556,60.144 65.466,58.256C66.241,56.649 66.764,54.922 67.012,53.155C67.278,51.256 67.231,49.312 66.869,47.428C66.562,45.823 66.024,44.263 65.279,42.808C63.522,39.381 60.622,36.583 57.133,34.952C55.646,34.258 54.06,33.777 52.438,33.529C51.634,33.406 50.825,33.345 50.013,33.329C49.787,33.328 49.788,33.328 49.563,33.329Z" style="" fill="black" fill-rule="nonzero"/></g><g transform="matrix(0.291935,0,0,0.291935,10.2207,56.2264)"><path d="M55.023,6.489C51.545,6.077 48.031,6.077 44.553,6.489C44,9.668 43.445,12.846 42.886,16.024C40.158,16.567 37.503,17.429 34.977,18.594C32.657,16.352 30.34,14.107 28.024,11.859C24.969,13.571 22.125,15.636 19.553,18.014C20.975,20.91 22.394,23.808 23.81,26.707C21.922,28.75 20.281,31.008 18.922,33.435C15.727,32.985 12.532,32.531 9.338,32.074C7.872,35.254 6.786,38.597 6.103,42.032C8.956,43.539 11.807,45.05 14.656,46.563C14.329,49.325 14.329,52.117 14.656,54.879C11.807,56.393 8.956,57.903 6.103,59.411C6.786,62.846 7.872,66.188 9.338,69.369C12.532,68.911 15.727,68.458 18.922,68.007C20.281,70.434 21.922,72.692 23.81,74.735C22.394,77.634 20.975,80.532 19.553,83.428C22.125,85.806 24.969,87.872 28.024,89.583C30.34,87.336 32.657,85.091 34.977,82.848C37.503,84.013 40.158,84.875 42.886,85.418C43.445,88.596 44,91.774 44.553,94.953C48.031,95.365 51.545,95.365 55.023,94.953C55.575,91.774 56.131,88.596 56.689,85.418C59.418,84.875 62.072,84.013 64.599,82.848C66.919,85.091 69.236,87.336 71.551,89.583C74.607,87.872 77.45,85.806 80.022,83.428C78.6,80.532 77.182,77.634 75.766,74.735C77.654,72.692 79.295,70.434 80.654,68.007C83.849,68.458 87.043,68.911 90.237,69.369C91.704,66.188 92.79,62.846 93.473,59.411C90.62,57.903 87.769,56.393 84.919,54.879C85.246,52.117 85.246,49.325 84.919,46.563C87.769,45.05 90.62,43.539 93.473,42.032C92.79,38.597 91.704,35.254 90.237,32.074C87.043,32.531 83.849,32.985 80.654,33.435C79.295,31.008 77.654,28.75 75.766,26.707C77.182,23.808 78.6,20.91 80.022,18.014C77.45,15.636 74.607,13.571 71.551,11.859C69.236,14.107 66.919,16.352 64.599,18.594C62.072,17.429 59.418,16.567 56.689,16.024C56.131,12.846 55.575,9.668 55.023,6.489ZM49.788,27.843C62.415,27.843 72.666,38.094 72.666,50.721C72.666,63.348 62.415,73.6 49.788,73.6C37.161,73.6 26.909,63.348 26.909,50.721C26.909,38.094 37.161,27.843 49.788,27.843Z" style="" fill="black"/></g><g transform="matrix(0.291935,0,0,0.291935,10.2207,56.2264)"><path d="M36.167,12.464C36.703,12.277 36.702,12.277 37.239,12.099L37.808,11.918L38.32,11.764L38.567,10.356L40.071,1.721L44.667,1.211C46.37,1.047 48.076,0.947 49.788,0.947C51.5,0.947 53.205,1.047 54.909,1.211L59.504,1.721L61.009,10.356L61.256,11.764C61.799,11.928 61.797,11.928 62.337,12.099L62.904,12.287L63.408,12.464L64.436,11.469L70.729,5.368L74.746,7.657C76.221,8.526 77.659,9.447 79.044,10.453C80.43,11.459 81.75,12.543 83.032,13.677L86.45,16.79L82.592,24.661L81.964,25.945C82.307,26.396 82.306,26.396 82.642,26.851L82.99,27.337L83.294,27.776L84.71,27.576L93.388,26.338L95.292,30.551C95.974,32.121 96.597,33.712 97.126,35.34C97.655,36.968 98.086,38.621 98.457,40.292L99.393,44.82L91.645,48.92L90.382,49.589C90.394,50.156 90.394,50.155 90.398,50.721L90.394,51.319L90.382,51.853L91.645,52.523L99.393,56.622L98.457,61.15C98.086,62.821 97.655,64.474 97.126,66.102C96.597,67.731 95.974,69.321 95.292,70.891L93.388,75.104L84.71,73.867L83.294,73.666C82.971,74.132 82.971,74.131 82.642,74.591L82.287,75.072L81.964,75.497L82.592,76.782L86.45,84.652L83.032,87.765C81.75,88.899 80.43,89.983 79.044,90.989C77.659,91.996 76.221,92.917 74.746,93.786L70.729,96.075L64.436,89.973L63.408,88.979C62.873,89.166 62.874,89.165 62.337,89.344L61.767,89.524L61.256,89.678L61.009,91.086L59.504,99.722L54.909,100.231C53.205,100.395 51.5,100.495 49.788,100.495C48.076,100.495 46.37,100.395 44.667,100.231L40.071,99.722L38.567,91.086L38.32,89.678C37.777,89.515 37.778,89.515 37.239,89.344L36.671,89.155L36.167,88.979L35.14,89.973L28.847,96.075L24.83,93.786C23.355,92.917 21.916,91.996 20.531,90.989C19.146,89.983 17.826,88.899 16.543,87.765L13.125,84.652L16.984,76.782L17.612,75.497C17.268,75.046 17.27,75.047 16.934,74.591L16.586,74.105L16.281,73.666L14.866,73.867L6.188,75.104L4.283,70.891C3.601,69.321 2.979,67.731 2.45,66.102C1.921,64.474 1.489,62.821 1.118,61.15L0.183,56.622L7.931,52.523L9.194,51.853C9.181,51.286 9.182,51.287 9.178,50.721L9.182,50.123L9.194,49.589L7.931,48.92L0.183,44.82L1.118,40.292C1.489,38.621 1.921,36.968 2.45,35.34C2.979,33.712 3.601,32.121 4.283,30.551L6.188,26.338L14.866,27.576L16.281,27.776C16.604,27.31 16.604,27.311 16.934,26.851L17.288,26.37L17.612,25.945L16.984,24.661L13.125,16.79L16.543,13.677C17.826,12.543 19.146,11.459 20.531,10.453C21.916,9.447 23.355,8.526 24.83,7.657L28.847,5.368C31.287,7.733 33.725,10.1 36.167,12.464ZM23.933,66.218C24.396,66.977 24.879,67.72 25.401,68.439C26.011,69.278 26.667,70.077 27.354,70.854L30.073,73.84L26.384,81.384L26.055,82.054C26.417,82.329 26.785,82.594 27.154,82.858L27.322,82.974L27.858,82.455L33.893,76.615L37.573,78.279C37.98,78.456 37.979,78.455 38.39,78.627C39.215,78.956 40.047,79.261 40.896,79.523C41.745,79.785 42.605,80.003 43.472,80.195L47.427,81.012L48.877,89.284L49.005,90.02C49.459,90.03 49.912,90.028 50.366,90.024L50.571,90.02L50.699,89.284L52.149,81.012L56.104,80.195C56.537,80.099 56.535,80.1 56.969,79.997C57.83,79.779 58.683,79.536 59.524,79.249C60.365,78.962 61.188,78.633 62.003,78.279L65.683,76.615L71.718,82.455L72.254,82.974C72.627,82.716 72.992,82.448 73.358,82.178L73.52,82.054L73.192,81.384L69.503,73.84L72.222,70.854C72.516,70.521 72.515,70.523 72.805,70.184C73.374,69.502 73.921,68.804 74.432,68.078C74.944,67.352 75.417,66.601 75.868,65.836L77.867,62.327L86.182,63.504L86.921,63.609C87.071,63.181 87.209,62.749 87.346,62.316L87.405,62.121L86.745,61.772L79.326,57.836L79.771,53.822C79.814,53.38 79.813,53.382 79.85,52.938C79.908,52.052 79.941,51.166 79.928,50.278C79.915,49.389 79.856,48.504 79.771,47.62L79.326,43.606L86.745,39.671L87.405,39.322C87.274,38.887 87.132,38.456 86.989,38.026L86.921,37.833L86.182,37.938L77.867,39.115L75.868,35.606C75.642,35.224 75.643,35.225 75.411,34.845C74.938,34.093 74.444,33.357 73.911,32.646C73.378,31.935 72.81,31.254 72.222,30.588L69.503,27.603L73.192,20.058L73.52,19.388C73.159,19.113 72.791,18.848 72.422,18.584L72.254,18.468L71.718,18.988L65.683,24.827L62.003,23.164C61.594,22.986 61.595,22.987 61.186,22.816C60.361,22.486 59.528,22.181 58.68,21.919C57.831,21.657 56.971,21.439 56.104,21.247L52.149,20.43L50.699,12.158L50.571,11.423C50.117,11.412 49.663,11.415 49.209,11.418L49.005,11.423L48.877,12.158L47.427,20.43L43.472,21.247C43.038,21.343 43.04,21.343 42.606,21.446C41.745,21.664 40.893,21.906 40.052,22.193C39.211,22.48 38.388,22.81 37.573,23.164L33.893,24.827L27.858,18.988L27.322,18.468C26.949,18.726 26.583,18.995 26.218,19.264L26.055,19.388L26.384,20.058L30.073,27.603L27.354,30.588C27.06,30.921 27.061,30.92 26.77,31.258C26.202,31.94 25.655,32.638 25.143,33.364C24.632,34.091 24.159,34.841 23.708,35.606L21.709,39.115L13.394,37.938L12.654,37.833C12.505,38.261 12.367,38.693 12.23,39.126L12.171,39.322L12.831,39.671L20.25,43.606L19.804,47.62C19.762,48.062 19.762,48.06 19.726,48.504C19.667,49.391 19.635,50.276 19.648,51.165C19.661,52.053 19.72,52.938 19.804,53.822L20.25,57.836L12.831,61.772L12.171,62.121C12.301,62.555 12.444,62.986 12.587,63.417L12.654,63.609L13.394,63.504L21.709,62.327C22.448,63.625 23.175,64.931 23.933,66.218ZM50.15,22.612C51.46,22.637 52.765,22.735 54.061,22.933C56.69,23.335 59.258,24.114 61.667,25.24C67.407,27.921 72.152,32.554 74.973,38.227C76.153,40.601 76.994,43.142 77.46,45.752C77.984,48.683 78.04,51.697 77.627,54.645C77.226,57.508 76.378,60.305 75.123,62.909C73.653,65.957 71.629,68.732 69.181,71.067C66.644,73.485 63.657,75.425 60.413,76.752C57.048,78.127 53.422,78.833 49.788,78.833C46.153,78.833 42.528,78.127 39.163,76.752C35.918,75.425 32.932,73.485 30.395,71.067C27.946,68.732 25.922,65.957 24.453,62.909C23.197,60.305 22.35,57.508 21.949,54.645C21.536,51.697 21.591,48.683 22.115,45.752C22.582,43.142 23.422,40.601 24.603,38.227C27.423,32.554 32.169,27.921 37.908,25.24C40.317,24.114 42.886,23.335 45.514,22.933C46.81,22.735 48.115,22.637 49.426,22.612C49.788,22.609 49.786,22.609 50.15,22.612ZM49.559,33.078C47.063,33.125 44.603,33.665 42.339,34.723C38.992,36.286 36.176,38.909 34.373,42.132C33.532,43.637 32.914,45.264 32.547,46.949C32.117,48.922 32.03,50.97 32.285,52.973C32.505,54.699 32.983,56.39 33.7,57.976C34.577,59.915 35.809,61.69 37.314,63.195C38.87,64.75 40.714,66.014 42.729,66.896C44.809,67.807 47.061,68.303 49.33,68.36C51.618,68.418 53.912,68.035 56.052,67.221C58.111,66.438 60.017,65.262 61.647,63.781C63.221,62.35 64.535,60.638 65.504,58.746C66.327,57.141 66.899,55.41 67.194,53.63C67.513,51.709 67.513,49.733 67.194,47.812C66.923,46.173 66.416,44.575 65.695,43.079C64.028,39.623 61.227,36.754 57.813,35.004C55.601,33.871 53.177,33.241 50.699,33.099C50.319,33.082 49.939,33.075 49.559,33.078Z" style="" fill="black" fill-rule="nonzero"/></g><text x="0" y="115" fill="#000000" font-size="5px" font-weight="bold" font-family="'Helvetica Neue', Helvetica, Arial-Unicode, Arial, Sans-serif">Created by Veronika Krpciarova</text><text x="0" y="120" fill="#000000" font-size="5px" font-weight="bold" font-family="'Helvetica Neue', Helvetica, Arial-Unicode, Arial, Sans-serif">from the Noun Project</text></svg>