<svg xmlns="http://www.w3.org/2000/svg" xmlns:xlink="http://www.w3.org/1999/xlink" style="isolation:isolate;" viewBox="0 0 510 637.5" x="0px" y="0px"><path d=" M 173.62 172.17 L 341.96 172.17 L 341.96 340.51 L 173.62 340.51 L 173.62 172.17 Z  M 188.62 187.17 L 326.96 187.17 L 326.96 325.51 L 188.62 325.51 L 188.62 187.17 Z " fill-rule="evenodd" fill="rgb(0,0,0)"/><path d=" M 211.96 210.51 L 303.62 210.51 L 303.62 302.17 L 211.96 302.17 L 211.96 210.51 Z  M 226.96 225.51 L 288.62 225.51 L 288.62 287.17 L 226.96 287.17 L 226.96 225.51 Z " fill-rule="evenodd" fill="rgb(0,0,0)"/><path d=" M 189.29 335.98 L 189.29 328.48 L 204.29 328.48 L 204.29 335.98 L 204.29 383.98 L 174.79 383.98 L 167.29 383.98 L 167.29 368.98 L 174.79 368.98 L 189.29 368.98 L 189.29 335.98 Z " fill="rgb(0,0,0)"/><circle vector-effect="non-scaling-stroke" cx="0" cy="0" r="1" transform="matrix(14.789,0,0,14.789,160,376.551)" fill="rgb(0,0,0)"/><path d=" M 292.21 396.98 L 299.71 396.98 L 299.71 411.98 L 292.21 411.98 L 268.71 411.98 L 268.71 335.98 L 268.71 328.48 L 283.71 328.48 L 283.71 335.98 L 283.71 396.98 L 292.21 396.98 Z " fill="rgb(0,0,0)"/><circle vector-effect="non-scaling-stroke" cx="0" cy="0" r="1" transform="matrix(-14.789,0,0,14.789,307,404.551)" fill="rgb(0,0,0)"/><path d=" M 229.29 335.98 L 229.29 328.48 L 244.29 328.48 L 244.29 335.98 L 244.29 423.98 L 214.79 423.98 L 207.29 423.98 L 207.29 408.98 L 214.79 408.98 L 229.29 408.98 L 229.29 335.98 Z " fill="rgb(0,0,0)"/><circle vector-effect="non-scaling-stroke" cx="0" cy="0" r="1" transform="matrix(14.789,0,0,14.789,200,416.551)" fill="rgb(0,0,0)"/><path d=" M 324.5 366.48 L 324.5 373.98 L 309.5 373.98 L 309.5 366.48 L 309.5 335.98 L 309.5 328.48 L 324.5 328.48 L 324.5 335.98 L 324.5 366.48 Z " fill="rgb(0,0,0)"/><circle vector-effect="non-scaling-stroke" cx="0" cy="0" r="1" transform="matrix(14.789,0,0,14.789,317,366.551)" fill="rgb(0,0,0)"/><path d=" M 325 174.02 L 325 181.52 L 310 181.52 L 310 174.02 L 310 126.02 L 339.5 126.02 L 347 126.02 L 347 141.02 L 339.5 141.02 L 325 141.02 L 325 174.02 Z " fill="rgb(0,0,0)"/><circle vector-effect="non-scaling-stroke" cx="0" cy="0" r="1" transform="matrix(-14.789,0,0,-14.789,354.289,133.449)" fill="rgb(0,0,0)"/><path d=" M 185.91 113.02 L 178.41 113.02 L 178.41 98.02 L 185.91 98.02 L 209.41 98.02 L 209.41 174.02 L 209.41 181.52 L 194.41 181.52 L 194.41 174.02 L 194.41 113.02 L 185.91 113.02 Z " fill="rgb(0,0,0)"/><circle vector-effect="non-scaling-stroke" cx="0" cy="0" r="1" transform="matrix(14.789,0,0,-14.789,171.122,105.449)" fill="rgb(0,0,0)"/><path d=" M 285 174.02 L 285 181.52 L 270 181.52 L 270 174.02 L 270 86.02 L 299.5 86.02 L 307 86.02 L 307 101.02 L 299.5 101.02 L 285 101.02 L 285 174.02 Z " fill="rgb(0,0,0)"/><circle vector-effect="non-scaling-stroke" cx="0" cy="0" r="1" transform="matrix(-14.789,0,0,-14.789,314.289,93.449)" fill="rgb(0,0,0)"/><path d=" M 230.58 143.52 L 230.58 136.02 L 245.58 136.02 L 245.58 143.52 L 245.58 174.02 L 245.58 181.52 L 230.58 181.52 L 230.58 174.02 L 230.58 143.52 Z " fill="rgb(0,0,0)"/><circle vector-effect="non-scaling-stroke" cx="0" cy="0" r="1" transform="matrix(-14.789,0,0,-14.789,238.078,143.449)" fill="rgb(0,0,0)"/><path d=" M 169.18 186.45 L 176.68 186.45 L 176.68 201.45 L 169.18 201.45 L 121.18 201.45 L 121.18 171.95 L 121.18 164.45 L 136.18 164.45 L 136.18 171.95 L 136.18 186.45 L 169.18 186.45 Z " fill="rgb(0,0,0)"/><circle vector-effect="non-scaling-stroke" cx="0" cy="0" r="1" transform="matrix(0,14.789,-14.789,0,128.609,157.16)" fill="rgb(0,0,0)"/><path d=" M 108.18 289.37 L 108.18 296.87 L 93.18 296.87 L 93.18 289.37 L 93.18 265.87 L 169.18 265.87 L 176.68 265.87 L 176.68 280.87 L 169.18 280.87 L 108.18 280.87 L 108.18 289.37 Z " fill="rgb(0,0,0)"/><circle vector-effect="non-scaling-stroke" cx="0" cy="0" r="1" transform="matrix(0,-14.789,-14.789,0,100.609,304.16)" fill="rgb(0,0,0)"/><path d=" M 169.18 226.45 L 176.68 226.45 L 176.68 241.45 L 169.18 241.45 L 81.18 241.45 L 81.18 211.95 L 81.18 204.45 L 96.18 204.45 L 96.18 211.95 L 96.18 226.45 L 169.18 226.45 Z " fill="rgb(0,0,0)"/><circle vector-effect="non-scaling-stroke" cx="0" cy="0" r="1" transform="matrix(0,14.789,-14.789,0,88.609,197.16)" fill="rgb(0,0,0)"/><path d=" M 138.68 321.66 L 131.18 321.66 L 131.18 306.66 L 138.68 306.66 L 169.18 306.66 L 176.68 306.66 L 176.68 321.66 L 169.18 321.66 L 138.68 321.66 Z " fill="rgb(0,0,0)"/><circle vector-effect="non-scaling-stroke" cx="0" cy="0" r="1" transform="matrix(0,14.789,-14.789,0,138.609,314.16)" fill="rgb(0,0,0)"/><path d=" M 373.82 175.95 L 373.82 168.45 L 388.82 168.45 L 388.82 175.95 L 388.82 205.45 L 340.82 205.45 L 333.32 205.45 L 333.32 190.45 L 340.82 190.45 L 373.82 190.45 L 373.82 175.95 Z " fill="rgb(0,0,0)"/><circle vector-effect="non-scaling-stroke" cx="0" cy="0" r="1" transform="matrix(0,14.789,14.789,0,381.391,161.16)" fill="rgb(0,0,0)"/><path d=" M 340.82 320.87 L 333.32 320.87 L 333.32 305.87 L 340.82 305.87 L 396.82 305.87 L 396.82 329.37 L 396.82 336.87 L 381.82 336.87 L 381.82 329.37 L 381.82 320.87 L 340.82 320.87 Z " fill="rgb(0,0,0)"/><circle vector-effect="non-scaling-stroke" cx="0" cy="0" r="1" transform="matrix(0,-14.789,14.789,0,389.391,344.16)" fill="rgb(0,0,0)"/><path d=" M 413.82 215.95 L 413.82 208.45 L 428.82 208.45 L 428.82 215.95 L 428.82 245.45 L 340.82 245.45 L 333.32 245.45 L 333.32 230.45 L 340.82 230.45 L 413.82 230.45 L 413.82 215.95 Z " fill="rgb(0,0,0)"/><circle vector-effect="non-scaling-stroke" cx="0" cy="0" r="1" transform="matrix(0,14.789,14.789,0,421.391,201.16)" fill="rgb(0,0,0)"/><path d=" M 371.32 268.66 L 378.82 268.66 L 378.82 283.66 L 371.32 283.66 L 340.82 283.66 L 333.32 283.66 L 333.32 268.66 L 340.82 268.66 L 371.32 268.66 Z " fill="rgb(0,0,0)"/><circle vector-effect="non-scaling-stroke" cx="0" cy="0" r="1" transform="matrix(0,14.789,14.789,0,371.391,276.16)" fill="rgb(0,0,0)"/><text x="0" y="525" fill="#000000" font-size="5px" font-weight="bold" font-family="'Helvetica Neue', Helvetica, Arial-Unicode, Arial, Sans-serif">Created by Andri Graphic</text><text x="0" y="530" fill="#000000" font-size="5px" font-weight="bold" font-family="'Helvetica Neue', Helvetica, Arial-Unicode, Arial, Sans-serif">from the Noun Project</text></svg>