<svg xmlns="http://www.w3.org/2000/svg" xmlns:xlink="http://www.w3.org/1999/xlink" version="1.1" x="0px" y="0px" viewBox="0 0 32 40" enable-background="new 0 0 32 32" xml:space="preserve"><path d="M28,2.609C27.578,1.375,26.781,1,26,1H6C5.219,1,4.422,1.375,4,2.609L1,11c0,3.625,1.563,4,3,4c1.531,0,3-0.708,3-2  c0,1.292,1.469,2,3,2s3-0.708,3-2c0,1.292,1.469,2,3,2s3-0.708,3-2c0,1.292,1.469,2,3,2s3-0.708,3-2c0,1.292,1.469,2,3,2  c1.438,0,3-0.375,3-4L28,2.609z M25,16.266C24.181,16.733,23.153,17,22,17s-2.181-0.267-3-0.734C18.181,16.733,17.153,17,16,17  s-2.181-0.267-3-0.734C12.181,16.733,11.153,17,10,17s-2.181-0.267-3-0.734C6.181,16.733,5.153,17,4,17  c-0.327,0-0.664-0.025-1-0.077V29c0,1.1,0.9,2,2,2h2V21h6v10h14c1.1,0,2-0.9,2-2V16.923C28.664,16.975,28.327,17,28,17  C26.847,17,25.819,16.733,25,16.266z M25,27h-8v-6h8V27z"/><text x="0" y="47" fill="#000000" font-size="5px" font-weight="bold" font-family="'Helvetica Neue', Helvetica, Arial-Unicode, Arial, Sans-serif">Created by Timothy Miller</text><text x="0" y="52" fill="#000000" font-size="5px" font-weight="bold" font-family="'Helvetica Neue', Helvetica, Arial-Unicode, Arial, Sans-serif">from the Noun Project</text></svg>